<svg width="65" height="65" viewBox="0 0 65 65" fill="none" xmlns="http://www.w3.org/2000/svg">
<path fill-rule="evenodd" clip-rule="evenodd" d="M30.4403 0.0617803C30.2331 0.0861553 29.5262 0.15928 28.8721 0.22428C21.2631 0.983968 13.5971 4.90834 8.41338 10.7015C2.6812 17.108 -0.231616 25.0583 0.0365088 33.5287C0.503696 48.1577 10.5584 60.5443 24.8218 64.0705C33.1865 66.1383 42.384 64.6637 49.6721 60.0893C56.944 55.519 62.0343 48.4787 64.0696 40.1668C64.7684 37.319 64.9309 35.8687 64.9309 32.5008C64.9309 29.133 64.7684 27.6827 64.0696 24.8349C60.8521 11.6927 50.0296 2.02397 36.5624 0.260843C35.4087 0.11053 31.2121 -0.0235322 30.4403 0.0617803ZM35.9653 6.35053C40.4909 6.93553 44.7281 8.67834 48.5224 11.514C49.859 12.5133 52.4874 15.1418 53.4868 16.4783C55.7659 19.5293 57.4518 23.1165 58.2156 26.5493C59.0849 30.4696 59.0849 34.5321 58.2156 38.4524C56.5337 46.0127 51.2078 52.724 44.1471 56.1771C41.5959 57.4243 38.9634 58.2408 36.0749 58.6796C34.3524 58.9437 30.6474 58.9437 28.9249 58.6796C21.0112 57.4771 14.3324 53.1587 10.1278 46.5205C9.25838 45.1515 8.12088 42.7627 7.55213 41.1093C6.57307 38.2777 6.15057 35.6737 6.15057 32.5008C6.15057 28.2799 6.96713 24.6805 8.77495 20.9633C10.1562 18.1277 11.5618 16.1696 13.8653 13.8662C16.1687 11.5627 18.1268 10.1571 20.9624 8.77584C25.6465 6.49678 30.7409 5.67616 35.9653 6.35053ZM31.3056 17.429C30.3956 17.7255 29.8796 18.2455 29.6278 19.1149C29.4815 19.6105 29.4653 20.744 29.4896 27.6908C29.5221 35.694 29.5221 35.698 29.7578 36.1408C30.0543 36.6974 30.6231 37.2012 31.1634 37.3921C31.6996 37.579 33.3003 37.579 33.8365 37.3921C34.3768 37.2012 34.9456 36.6974 35.2421 36.1408C35.4778 35.698 35.4778 35.694 35.5103 27.6908C35.5428 18.9483 35.5428 18.9402 34.9212 18.2049C34.4174 17.6037 33.8771 17.4046 32.6624 17.3721C32.0653 17.3558 31.4559 17.3802 31.3056 17.429ZM31.6306 42.779C30.8628 43.0308 30.1031 43.6849 29.7334 44.4121C29.449 44.9808 29.4003 46.0087 29.6318 46.6993C30.0137 47.8571 31.269 48.7508 32.4999 48.7508C33.7309 48.7508 34.9862 47.8571 35.3681 46.6993C35.5996 46.0087 35.5509 44.9808 35.2665 44.4121C35.0024 43.8921 34.3687 43.2502 33.8528 42.9821C33.3815 42.7383 32.1099 42.6205 31.6306 42.779Z" fill="#595959"/>
</svg>
