<svg width="1901" height="703" viewBox="0 0 1901 703" fill="none" xmlns="http://www.w3.org/2000/svg">
<rect x="1309.5" y="28" width="148" height="83" fill="#8EBF8D"/>
<rect x="1342.5" y="120" width="98" height="7" fill="#8EBF8D"/>
<rect x="1342.5" y="132" width="77" height="7" fill="#8EBF8D"/>
<circle cx="1323" cy="129.5" r="10.5" fill="#8EBF8D"/>
<path d="M1396.25 70.2894L1371.5 84.5788L1371.5 56L1396.25 70.2894Z" fill="white"/>
<path d="M1381.5 152L1381.5 229" stroke="#8EBF8D" stroke-width="8" stroke-linecap="round"/>
<rect x="1752.5" width="148" height="83" fill="#E5BF76"/>
<rect x="1785.5" y="92" width="98" height="7" fill="#E5BF76"/>
<rect x="1785.5" y="104" width="77" height="7" fill="#E5BF76"/>
<circle cx="1766" cy="101.5" r="10.5" fill="#E5BF76"/>
<path d="M1839.25 42.2894L1814.5 56.5788L1814.5 28L1839.25 42.2894Z" fill="white"/>
<path d="M1825.5 132L1825.5 213" stroke="#E5BF76" stroke-width="8" stroke-linecap="round"/>
<rect x="415.5" y="536" width="148" height="83" fill="#FFB5B5"/>
<rect x="448.5" y="628" width="98" height="7" fill="#FFB5B5"/>
<rect x="448.5" y="640" width="77" height="7" fill="#FFB5B5"/>
<circle cx="429" cy="637.5" r="10.5" fill="#FFB5B5"/>
<path d="M502.25 578.289L477.5 592.579L477.5 564L502.25 578.289Z" fill="white"/>
<path d="M489.5 438L489.5 512" stroke="#FFB5B5" stroke-width="8" stroke-linecap="round"/>
<rect x="972.5" y="591" width="148" height="83" fill="#B5B8FF"/>
<rect x="1005.5" y="683" width="98" height="7" fill="#B5B8FF"/>
<rect x="1005.5" y="695" width="77" height="7" fill="#B5B8FF"/>
<circle cx="986" cy="692.5" r="10.5" fill="#B5B8FF"/>
<path d="M1059.25 633.289L1034.5 647.579L1034.5 619L1059.25 633.289Z" fill="white"/>
<path d="M1046.5 373L1046.5 562" stroke="#B5B8FF" stroke-width="8" stroke-linecap="round"/>
<path d="M1826 213C1626.5 213 1625 294 1479 267.5C1333 241 1229.5 86.0001 1123.5 232C1017.5 378 989 642.5 766.5 488.5C544 334.5 370.5 501.275 251 557.5C131.5 613.725 4 519.5 4 519.5" stroke="white" stroke-width="8" stroke-linecap="round"/>
</svg>
